<svg
    xmlns="http://www.w3.org/2000/svg"
    viewBox="0 0 428 428"
    id="vector"
    width="428px"
    height="428px">
    <g id="group">
        <path
            id="path"
            d="M 427.651 325.175 C 424.053 313.369 417.583 302.641 408.819 293.951 C 394.862 279.916 375.868 272.049 356.074 272.103 C 345.957 272.108 335.946 274.16 326.643 278.136 L 253.272 204.764 L 350.693 108.077 L 373.764 107.425 C 376.555 107.34 379.108 105.832 380.531 103.43 L 413.548 47.913 C 415.467 44.709 414.962 40.61 412.325 37.967 L 383.792 9.433 C 381.148 6.796 377.05 6.292 373.846 8.21 L 318.328 41.228 C 315.926 42.65 314.418 45.203 314.333 47.994 L 313.681 70.984 L 216.505 167.997 L 149.818 101.311 C 156.82 60.713 129.585 22.126 88.987 15.124 C 70.177 11.879 50.837 15.969 34.951 26.553 C 31.222 29.075 30.242 34.143 32.764 37.873 C 33.474 38.922 34.417 39.791 35.522 40.412 L 72.534 61.038 C 80.686 65.685 82.317 79.544 75.713 91.283 C 69.11 103.023 56.474 109.055 48.24 104.49 L 13.918 85.903 C 9.973 83.732 5.016 85.171 2.846 89.116 C 2.098 90.474 1.754 92.018 1.854 93.566 C 4.433 134.682 39.856 165.922 80.973 163.343 C 89.467 162.81 97.808 160.827 105.633 157.481 L 166.287 218.134 L 140.037 244.385 L 134.085 238.515 C 127.497 232.21 117.113 232.21 110.525 238.515 L 102.373 246.668 C 96.161 252.715 95.768 262.564 101.476 269.087 L 5.033 365.366 C -1.473 371.592 -1.7 381.914 4.526 388.419 C 4.691 388.592 4.86 388.762 5.033 388.927 L 32.588 416.482 C 38.813 422.987 49.135 423.215 55.641 416.989 C 55.814 416.824 55.983 416.655 56.149 416.482 L 152.673 320.039 C 159.196 325.747 169.045 325.353 175.092 319.142 L 183.244 310.99 C 189.75 304.765 189.977 294.443 183.752 287.937 C 183.587 287.764 183.417 287.595 183.244 287.43 L 177.293 281.478 L 203.381 254.82 L 282.459 333.898 C 275.627 374.525 303.023 412.998 343.65 419.829 C 367.714 423.876 392.236 415.897 409.31 398.465 C 412.304 395.102 412.006 389.95 408.643 386.955 C 407.775 386.181 406.751 385.603 405.641 385.258 L 359.743 372.948 C 355.245 371.502 351.685 368.032 350.123 363.573 C 347.739 357.425 347.452 350.661 349.308 344.333 C 352.732 331.534 363.575 322.403 372.705 324.849 L 418.114 337.078 C 418.844 337.183 419.586 337.183 420.315 337.078 C 424.818 337.133 428.512 333.527 428.566 329.025 C 428.581 327.686 428.268 326.363 427.651 325.175 Z M 327.296 80.033 C 328.763 78.555 329.609 76.571 329.66 74.489 L 330.312 52.722 L 376.536 25.249 L 396.102 44.815 L 369.199 90.957 L 347.024 91.772 C 344.943 91.823 342.958 92.669 341.481 94.137 L 242.022 193.514 L 228 179.492 L 327.296 80.033 Z M 44.571 404.905 L 16.608 377.106 L 113.54 280.418 L 127.562 294.441 L 140.932 308.3 L 44.571 404.905 Z M 163.84 307.077 L 153.079 296.234 L 148.922 292.076 L 114.682 257.592 L 122.834 249.439 L 171.748 299.006 L 163.84 307.077 Z M 165.389 269.902 L 151.367 255.88 L 177.618 229.629 L 191.64 243.651 L 165.389 269.902 Z M 376.699 309.115 C 374.28 308.465 371.785 308.136 369.28 308.137 C 351.507 309.571 336.837 322.611 333.328 340.094 C 330.546 349.911 331.091 360.374 334.877 369.85 C 338.372 378.97 345.95 385.914 355.34 388.601 L 385.667 396.753 C 358.012 413.232 322.234 404.173 305.755 376.519 C 298.015 363.531 295.626 348.045 299.088 333.327 C 299.709 330.59 298.877 327.726 296.887 325.746 L 113.133 141.828 C 110.524 139.377 106.622 138.915 103.513 140.687 C 95.094 145.129 85.72 147.452 76.202 147.453 C 51.675 147.475 29.766 132.119 21.418 109.055 L 40.006 119.409 C 44.339 121.835 49.225 123.099 54.191 123.078 C 69.285 122.208 82.785 113.395 89.654 99.925 C 100.741 80.114 96.42 56.554 80.115 47.423 L 56.392 33.972 C 86.709 23.143 120.063 38.941 130.893 69.257 C 134.651 79.779 135.306 91.16 132.78 102.044 C 132.159 104.782 132.991 107.646 134.981 109.626 L 319.143 293.707 C 321.66 296.227 325.523 296.822 328.682 295.174 C 337.101 290.735 346.474 288.413 355.992 288.408 C 376.636 288.391 395.744 299.311 406.211 317.104 L 376.699 309.115 Z"
            fill="#000000"
            fill-opacity="0"
            stroke-opacity="0"
            stroke-width="1"
            stroke-dasharray="1257.256054468429,1257.256054468429"
            stroke-dashoffset="2514.512108936858"
            stroke-linejoin="round"
            fill-rule="evenodd"/>
        <g id="group_1">
            <path
                id="path_1"
                d="M 232.8 91.6 L 232.4 91.52 C 164.735 81.296 101.593 127.857 91.36 195.52 C 86.548 226.957 94.088 259.037 112.4 285.04 L 102.56 318.32 C 101.31 322.558 103.733 327.006 107.97 328.256 C 109.835 328.806 111.836 328.658 113.6 327.84 L 142.08 315.12 C 158.086 326.608 176.596 334.121 196.08 337.04 C 202.198 337.946 208.375 338.401 214.56 338.4 C 275.716 337.861 327.472 293.083 336.8 232.64 C 346.931 164.998 300.414 101.914 232.8 91.6 Z M 320.96 230.08 C 312.112 289.112 257.085 329.794 198.054 320.946 C 179.651 318.188 162.273 310.725 147.6 299.28 C 145.301 297.542 142.245 297.176 139.6 298.32 L 123.6 306.32 L 129.52 286.32 C 130.225 283.903 129.751 281.294 128.24 279.28 C 110.469 256.203 102.845 226.891 107.12 198.08 C 115.942 139.134 170.878 98.5 229.824 107.321 C 229.909 107.334 229.995 107.347 230.08 107.36 C 289.033 116.204 329.695 171.11 320.96 230.08 Z"
                fill="#000000"
                fill-opacity="0.7755613111161977"
                stroke-width="1"/>
            <path
                id="path_2"
                d="M 420.16 158.56 L 375.84 158.56 C 373.578 151.895 370.906 145.376 367.84 139.04 L 399.2 107.68 C 402.302 104.56 402.302 99.52 399.2 96.4 L 331.84 29.12 C 328.72 26.018 323.68 26.018 320.56 29.12 L 289.2 60.48 C 282.864 57.414 276.345 54.742 269.68 52.48 L 269.68 8 C 269.68 3.582 266.098 0 261.68 0 L 166.56 0 C 162.142 0 158.56 3.582 158.56 8 L 158.56 52.32 C 151.895 54.582 145.376 57.254 139.04 60.32 L 107.68 29.12 C 104.56 26.018 99.52 26.018 96.4 29.12 L 29.12 96.32 C 26.018 99.44 26.018 104.48 29.12 107.6 L 60.48 138.96 C 57.414 145.296 54.742 151.815 52.48 158.48 L 8 158.48 C 3.582 158.48 0 162.062 0 166.48 L 0 261.6 C 0 266.018 3.582 269.6 8 269.6 L 52.32 269.6 C 54.582 276.265 57.254 282.784 60.32 289.12 L 29.12 320.48 C 26.018 323.6 26.018 328.64 29.12 331.76 L 96.4 399.04 C 99.52 402.142 104.56 402.142 107.68 399.04 L 139.04 367.68 C 145.376 370.746 151.895 373.418 158.56 375.68 L 158.56 420 C 158.56 424.418 162.142 428 166.56 428 L 261.6 428 C 266.018 428 269.6 424.418 269.6 420 L 269.6 375.84 C 276.265 373.578 282.784 370.906 289.12 367.84 L 320.48 399.2 C 323.6 402.302 328.64 402.302 331.76 399.2 L 399.04 331.92 C 402.142 328.8 402.142 323.76 399.04 320.64 L 367.68 289.28 C 370.746 282.944 373.418 276.425 375.68 269.76 L 420 269.76 C 424.418 269.76 428 266.178 428 261.76 L 428 166.56 C 428.001 162.203 424.516 158.647 420.16 158.56 Z M 412.16 253.68 L 370 253.68 C 366.349 253.524 363.056 255.862 362 259.36 C 359.093 268.936 355.262 278.206 350.56 287.04 C 348.883 290.142 349.435 293.977 351.92 296.48 L 382.08 326.08 L 326.08 382.08 L 296.24 352.32 C 293.737 349.835 289.902 349.283 286.8 350.96 C 277.966 355.662 268.696 359.493 259.12 362.4 C 255.622 363.456 253.284 366.749 253.44 370.4 L 253.44 412.48 L 174.56 412.48 L 174.56 370 C 174.716 366.349 172.378 363.056 168.88 362 C 159.304 359.093 150.034 355.262 141.2 350.56 C 138.098 348.883 134.263 349.435 131.76 351.92 L 102.08 382.08 L 46.08 326.08 L 75.84 296.24 C 78.324 293.737 78.877 289.902 77.2 286.8 C 72.498 277.966 68.667 268.696 65.76 259.12 C 64.704 255.622 61.411 253.284 57.76 253.44 L 16 253.44 L 16 174.56 L 58.08 174.56 C 61.731 174.716 65.024 172.378 66.08 168.88 C 68.987 159.304 72.818 150.034 77.52 141.2 C 79.197 138.098 78.645 134.263 76.16 131.76 L 46.08 102.08 L 102.08 46.08 L 131.92 75.84 C 134.423 78.324 138.258 78.877 141.36 77.2 C 150.194 72.498 159.464 68.667 169.04 65.76 C 172.538 64.704 174.876 61.411 174.72 57.76 L 174.72 16 L 253.84 16 L 253.84 58.08 C 253.684 61.731 256.022 65.024 259.52 66.08 C 269.096 68.987 278.366 72.818 287.2 77.52 C 290.302 79.197 294.137 78.645 296.64 76.16 L 326.08 46.08 L 382.08 102.08 L 352.32 131.92 C 349.836 134.423 349.283 138.258 350.96 141.36 C 355.662 150.194 359.493 159.464 362.4 169.04 C 363.456 172.538 366.749 174.876 370.4 174.72 L 412.48 174.72 L 412.16 253.68 Z"
                fill="#000000"
                fill-opacity="0.7755613111161977"
                stroke-width="1"/>
        </g>
    </g>
</svg>
